<svg width="24" height="24" viewBox="0 0 24 24" fill="none" xmlns="http://www.w3.org/2000/svg">
<path fill-rule="evenodd" clip-rule="evenodd" d="M4.17545 11.0351C4.17545 7.30474 7.19949 4.2807 10.9298 4.2807C14.6602 4.2807 17.6842 7.30474 17.6842 11.0351C17.6842 12.8548 16.9646 14.5065 15.7943 15.7211C15.7613 15.7465 15.7295 15.7743 15.6993 15.8045C15.669 15.8348 15.6412 15.8666 15.6158 15.8996C14.4013 17.0698 12.7496 17.7895 10.9298 17.7895C7.19949 17.7895 4.17545 14.7654 4.17545 11.0351ZM16.3504 17.8203C14.8648 19.0087 12.9803 19.7193 10.9298 19.7193C6.13367 19.7193 2.24562 15.8312 2.24562 11.0351C2.24562 6.23893 6.13367 2.35088 10.9298 2.35088C15.726 2.35088 19.614 6.23893 19.614 11.0351C19.614 13.0855 18.9034 14.97 17.715 16.4557L21.2612 20.0019C21.6381 20.3787 21.6381 20.9897 21.2612 21.3665C20.8844 21.7433 20.2735 21.7433 19.8967 21.3665L16.3504 17.8203Z" fill="#190134"/>
</svg>
